<svg width="16" height="16" viewBox="0 0 16 16" fill="none" xmlns="http://www.w3.org/2000/svg">
  <path 
    fill-rule="evenodd" 
    clip-rule="evenodd" 
    d="M8 0C3.58 0 0 3.58 0 8C0 11.54 2.29 14.59 5.47 15.58C5.88 15.66 6.02 15.41 6.02 15.2C6.02 15.01 6.01 14.29 6.01 13.38C4 13.88 3.48 12.97 3.28 12.48C3.17 12.22 2.77 11.58 2.4 11.42C2.09 11.29 1.68 10.92 2.38 10.91C3.04 10.91 3.52 11.54 3.68 11.81C4.44 13.09 5.74 12.68 6.18 12.46C6.26 11.97 6.45 11.62 6.68 11.42C4.89 11.23 3.68 10.55 3.68 7.53C3.68 6.67 3.96 5.97 4.41 5.41C4.33 5.22 4.08 4.41 4.47 3.31C4.47 3.31 5.14 3.11 6.02 4.13C6.63 3.95 7.29 3.87 7.95 3.87C8.61 3.87 9.27 3.95 9.88 4.13C10.76 3.11 11.43 3.31 11.43 3.31C11.82 4.41 11.57 5.22 11.49 5.41C11.94 5.97 12.22 6.67 12.22 7.53C12.22 10.55 11.01 11.23 9.22 11.42C9.53 11.69 9.78 12.16 9.78 12.83C9.78 13.86 9.77 14.72 9.77 15.2C9.77 15.41 9.91 15.66 10.32 15.58C13.71 14.59 16 11.54 16 8C16 3.58 12.42 0 8 0Z" 
    fill="white"
  />
</svg>
